<svg width="2436" height="559" viewBox="0 0 2436 559" fill="none" xmlns="http://www.w3.org/2000/svg">
<path d="M445 209C445 200.8 441.6 192.6 434.6 184.2C433.6 183 432.4 182.6 431.4 183.2C430.4 183.8 430 185.2 430.6 186.6C433.4 193.4 434.8 201 435 209C435 214 436.4 216.6 439.6 216.6C443.2 216.6 445 214 445 209ZM428 225.4V171.6H448V225.4H428ZM515.2 317.8V262.4H568.8V317.8H515.2ZM458.6 225.4V171.6H479V183C477.6 182.2 474.8 181.2 471 180.2C469 179.6 467.2 180.8 467 182.8C465.6 193.8 463.8 204.2 461.4 213.6C461 215.4 461.2 216.8 462.2 217C463.6 217.6 465 217 465.6 215.6C469.4 207.6 472.8 198.6 476 188.6L479 187.8V225.4H458.6ZM429.8 307.6C429.8 305.2 429.6 302 429.4 298.2C429.2 297 428.8 296.2 428 296C426 295.6 424.4 296.8 424 298.8C422.2 309.8 418.2 318 411.6 323.6C409.6 325.4 408.6 327.4 408.6 329.2C408.6 333.6 411 335.6 416 335.6C418.8 335.6 421.6 333.6 424.2 329.8C428 324.6 429.8 317 429.8 307.6ZM452.2 319.2C452.2 311.6 449.4 304 443.8 295.6C443.2 294.6 442.2 294.2 441 294.4C439.6 294.6 438.8 296.2 439.2 298C440.2 303.6 440.8 308.6 440.8 313C440.8 316.6 440.4 320 439.8 323C439.4 324.8 439.2 326 439.2 326.6C439.2 329.4 441 331 444.4 331C449.6 331 452.2 327 452.2 319.2ZM475 317C475 308.2 469.6 299.6 459 291.6C458 290.8 456.6 290.8 455.8 291.4C454.8 292.2 454.8 293.6 455.6 295C460.4 303.2 463 311.2 463.2 319C463.4 322.8 464.8 324.6 468 324.6C472.6 324.6 475 322 475 317ZM496.2 306.6C496.2 299.4 490.2 292.6 478 286.2C476.8 285.6 475.4 285.8 474.6 286.6C473.8 287.6 474 289 475 290.2C480.2 295.8 483.4 301.8 484.6 308.2C485.2 311.6 487 313.4 489.8 313.4C494 313.4 496.2 311.2 496.2 306.6ZM496.2 169.8C496.2 168 493.2 164.6 487.2 159.6C485.8 158.4 484 158.6 482.8 160L477.4 166.6H429.8C427 164.8 424.4 163.4 421.8 162C419.6 160.8 417.2 162.6 417.2 165.6V235.8C417.2 237.6 418.4 238.8 420.2 238.8H425C426.8 238.8 428 237.6 428 235.8V230.4H447.8V250.2H416.6C414 250.2 412 251.8 412.8 253.6C413.4 254.6 414.2 255.2 415.4 255.2H447.8V274.6C433 276.4 420.4 277.8 409.8 278.6C407.8 278.8 406.6 280.6 407 282.6C408.8 291 411 295.2 413.2 295.2C414.6 295.2 416 292.8 417.2 288.2C444 284 469.4 279 493.2 273.2C495 272.8 496.2 271.6 495.8 270.4C495.4 268.8 494 267.8 492.4 268C480.2 270.2 469 271.8 458.6 273.2V255.2H490.2C491.2 255.2 492 254.6 492.6 253.8L493 253C493.6 251.8 493.4 250.6 492.6 249.8L492 249C489.2 246 486.8 243.4 484.2 241.4C483 240.2 481.2 240.4 480.2 241.8L473 250.2H458.6V230.4H479V232.4C479 234.2 480.2 235.4 482 235.4H486.4C488.2 235.4 489.4 234.2 489.4 232.4V175L494.6 171.6C495.6 171 496.2 170.4 496.2 169.8ZM588 208.8C588.6 207.8 588.6 206.6 588 205.8C585.8 202.8 583 199.4 579.4 195.4C577.8 193.8 575.6 193.8 574.2 195.8L566.8 206H544V169.6C550.2 167.2 553.4 165.4 553.4 163.8C553.4 161.2 547.8 159.6 536.2 158.8C534.2 158.6 532.8 160 532.8 161.8V257.4H517.4C512.6 255 509 253 506.4 251.8C505.2 251.2 503.8 253.4 503.8 256.2V332.4C503.8 334.2 505 335.4 506.8 335.4H512.2C514 335.4 515.2 334.2 515.2 332.4V322.8H568.8V332.4C568.8 334.2 570 335.4 571.8 335.4H576.8C578.6 335.4 579.8 334.2 579.8 332.4V266.2L585.2 262.6C586.2 262 586.8 261.2 586.8 260.2C586.8 258.6 583.6 255 577.4 249.6C575.8 248.2 574 248.4 572.8 249.8L566.8 257.4H544V211H585.2C586 211 586.8 210.6 587.4 209.8L588 208.8ZM936.2 208.8C936 207 936 205.6 936 204.4C935.8 203.2 935.2 202.2 934.2 202C932.2 201.6 930.4 202.8 930.2 204.8C927.6 226.2 920.8 242.4 909.4 253.6C907 256 905.8 258.4 905.8 260.4C905.8 265 908.2 267.4 913.2 267.4C917 267.4 920.8 264.6 924.6 258.8C932.2 247 936.2 231.6 936.2 212.4V208.8ZM1061.4 321.8C1063.4 319.8 1063 317.2 1060.4 316C1035 303.8 1015.8 287.4 1003 266.8C990.2 246.4 983.6 223.2 983.6 197V170C989.4 168.2 992.2 166.4 992.2 164.6C992.2 162 986.4 160.4 974.6 159.6C972.6 159.4 971.2 160.8 971.2 162.6V211C971.2 242.2 965.6 267 954.4 285.6C943.4 303.6 924.4 318 897 329.2C895 330 894.2 331.8 895 333.2C895.8 334.4 897 335 898.4 334.6C923.8 327.2 943 316.6 955.4 303.2C971.2 286.4 980.2 262.2 982.8 231C989.2 272.6 1012.2 305.2 1052 328.8C1053.4 329.6 1055 329.2 1056 328C1057.6 325.8 1059.4 323.8 1061.4 321.8ZM1054.6 204.6C1054.6 202 1049.8 198 1040.4 192.6C1038.6 191.8 1036.6 192.4 1035.8 194C1027 213 1016.2 230.6 1003.6 246.6C1002.6 247.8 1002.6 249.6 1003.8 250.4C1005 251.4 1006.6 251.4 1007.8 250.4C1022 237.4 1034.4 223.2 1045.2 207.4C1051.6 207.4 1054.6 206.4 1054.6 204.6ZM1390.4 317.6V277.2H1419.8V317.6H1390.4ZM1514.4 251.6C1509.8 264.6 1502 277.2 1491.4 289.4C1481.6 280 1472.2 267.4 1463.2 251.6H1514.4ZM1437 276C1437 274.2 1434 270.8 1428 265.4C1426.6 264.2 1424.6 264.4 1423.4 265.8L1418.4 272.2H1392C1388.6 270.2 1385.6 268.4 1383 267.2C1381 266.2 1379 268 1379 270.8V332.4C1379 334.2 1380.2 335.4 1382 335.4H1387.4C1389.2 335.4 1390.4 334.2 1390.4 332.4V322.6H1419.8V331.8C1419.8 333.6 1421 334.8 1422.8 334.8H1427.6C1429.4 334.8 1430.6 333.6 1430.6 331.8V281.2L1435.2 278.4C1436.4 277.8 1437 277 1437 276ZM1436.4 249.4C1437 248.4 1437 247.2 1436.2 246.2C1433.8 243 1431 240.2 1428.4 237.4C1427 236 1424.8 236.2 1423.6 237.8L1416.6 246.6H1383.2C1380.6 246.6 1378.6 248.2 1379.4 250C1380 251 1380.8 251.6 1382 251.6H1433.6C1434.4 251.6 1435.2 251.2 1435.8 250.4L1436.4 249.4ZM1436.2 225C1437 223.8 1437 222.6 1436.2 221.6C1433.4 218.2 1430.8 215.4 1428.6 212.8C1427.2 211.4 1425 211.6 1423.8 213.2L1417.2 221.6H1383.4C1380.6 221.6 1378.6 223.2 1379.4 224.8C1379.8 226 1380.8 226.6 1381.8 226.6H1433.8C1434.6 226.6 1435.4 226.2 1436 225.4L1436.2 225ZM1543 325.4C1545 323.2 1544.4 320.6 1541.6 319.6C1524.8 313.8 1510.8 305.8 1499.2 296.4C1510.2 284.4 1519.2 270.8 1526 255.8L1530.6 253.2C1531.8 252.4 1532.6 251.6 1532.6 250.6C1532.6 248.6 1529.6 245.2 1523.6 239.8C1522 238.4 1520.2 238.6 1519 240L1513.6 246.6H1448.2C1445.6 246.6 1443.6 248.2 1444.4 250C1445 251 1445.8 251.6 1447 251.6H1456.6C1463.8 268.4 1473.4 283.4 1485 296.4C1472.2 310.2 1457 321 1438.8 329.2C1437 330 1436.2 331.8 1437 333.2C1437.8 334.4 1439 335 1440.4 334.4C1460.6 327.2 1478.2 317.2 1492.6 304C1503.8 314.8 1518.2 324.2 1535.4 332C1536.8 332.6 1538.4 332 1539.2 330.6C1540.4 328.8 1541.6 327 1543 325.4ZM1446.6 199.6C1447.2 198.6 1447.2 197.4 1446.4 196.6L1445.8 195.8C1443.4 192.6 1440.4 189.6 1437.4 186.8C1436 185.4 1434.2 185.6 1433 187L1425.2 196.6H1373.4C1370.8 196.6 1369 198.2 1369.6 199.8C1370 201 1371 201.6 1372.2 201.6H1444C1445 201.6 1445.8 201 1446.4 200.2L1446.6 199.6ZM1435.2 174.6C1435.8 173.4 1435.6 172.2 1434.8 171.2L1433.6 169.8C1431 166.8 1428.8 164.2 1426.8 162.2C1425.6 160.8 1423.4 161 1422.2 162.6L1415 171.4H1386.2C1383.4 171.4 1381.4 173 1382.2 174.6C1382.6 175.8 1383.6 176.4 1384.6 176.4H1432.6C1433.4 176.4 1434.2 176 1434.8 175.2L1435.2 174.6ZM1544.8 218.8C1545 217.2 1543.8 216.2 1542.2 215.6C1540.8 215 1539.8 214 1539.2 212.6C1538 209.8 1537.6 203.8 1537.6 194.4V191.6C1537.6 190.6 1537.2 189.6 1536.6 189.4C1534.2 188.4 1532 190 1531.8 192.4C1531 203 1530 209.8 1528.6 213.2C1527.6 215.8 1523.6 217 1516.6 217C1512.2 217 1510 215.4 1510 212.4V175.8L1514.2 173C1515.4 172.2 1516 171.4 1516 170.6C1516 169.2 1513 166 1507.2 161C1505.8 159.8 1504 160 1502.8 161.4L1497.6 167.6H1473.6C1471.4 166.4 1469.2 165.2 1467 164C1464.4 162.8 1462 164.4 1462 167.2V184.8C1462 205.8 1455.8 221.8 1443.6 233.2C1442.4 234.2 1442 235.8 1443 237C1444 238 1445.4 238.4 1446.8 237.6C1464.4 226.6 1473.2 209 1473.2 185V172.6H1499.2V214.8C1499.2 220.4 1500.4 224 1503.4 225.4C1505.8 226.6 1511.6 227.4 1520.6 227.4C1529.4 227.4 1535.4 226.8 1538.4 226C1542 225.2 1544.2 222.8 1544.8 218.8ZM1873.2 317.6V277.4H1911V317.6H1873.2ZM1928.6 275.8C1928.6 274.2 1925.4 270.8 1919.2 265.4C1917.8 264.2 1916 264.4 1914.8 265.8L1909.4 272.4H1875.2C1872.4 270.8 1869.6 269.4 1866.6 268.2C1864 267 1861.6 268.6 1861.6 271.4V332.4C1861.6 334.2 1862.8 335.4 1864.6 335.4H1870.2C1872 335.4 1873.2 334.2 1873.2 332.4V322.6H1911V332.4C1911 334.2 1912.2 335.4 1914 335.4H1919.4C1921.2 335.4 1922.4 334.2 1922.4 332.4V281L1926.6 278.4C1927.8 277.6 1928.6 276.8 1928.6 275.8ZM1926.2 249.4C1926.8 248.4 1926.8 247.2 1926 246.2C1923.4 242.8 1920.6 239.8 1917.6 236.8C1916.2 235.2 1914 235.4 1912.8 237L1905.4 246.8H1866C1863.2 246.8 1861.2 248.4 1862 250C1862.4 251.2 1863.4 251.8 1864.4 251.8H1923.2C1924 251.8 1924.8 251.4 1925.4 250.6L1926.2 249.4ZM1926.2 224.8C1926.8 223.8 1926.8 222.6 1926 221.6C1923.2 218 1920.4 214.6 1917.4 211.8C1916.2 210.4 1914 210.6 1912.8 212.2L1905.4 221.6H1865.6C1863 221.6 1861.2 223.2 1861.8 224.8C1862.2 226 1863.2 226.6 1864.4 226.6H1923.6C1924.4 226.6 1925.2 226.2 1925.8 225.4L1926.2 224.8ZM1939.4 199.4C1940 198.6 1939.8 197.6 1939.2 196.6C1936.6 193.2 1933.4 189.8 1929.6 186.4C1928.2 185 1926.2 185.2 1925 186.6L1917 196.6H1853.6C1850.8 196.6 1848.8 198.2 1849.6 199.8C1850 201 1851 201.6 1852 201.6H1936.6C1937.8 201.6 1938.6 201 1939.2 200L1939.4 199.4ZM1924.2 174.4C1924.8 173.4 1924.8 172.2 1924 171.2C1921.2 167.8 1918.2 164.6 1915 161.6C1913.6 160.2 1911.6 160.4 1910.4 162L1902.8 171.4H1868.6C1866 171.4 1864.2 172.8 1864.8 174.4C1865.2 175.6 1866.2 176.4 1867.4 176.4H1921.6C1922.4 176.4 1923.2 176 1923.8 175.2L1924.2 174.4ZM2028 232.4C2028.4 231.4 2028.4 230.2 2027.6 229.4C2024.4 225.2 2021.2 221.6 2018.6 218.6C2017.2 217 2015 217 2013.6 218.8L2005.6 229.8H1983.6V172C1989.4 169.8 1992.2 167.8 1992.2 166.2C1992.2 163.6 1986.4 162 1974.8 161.2C1972.8 161 1971.4 162.4 1971.4 164.2V229.8H1935.2C1932.4 229.8 1930.4 231.4 1931.2 233.2C1931.8 234.2 1932.6 234.8 1933.6 234.8H1971.4V332.4C1971.4 334.2 1972.6 335.4 1974.4 335.4H1980.6C1982.4 335.4 1983.6 334.2 1983.6 332.4V234.8H2025C2026 234.8 2026.8 234.4 2027.4 233.4L2028 232.4Z" fill="black"/>
<line y1="406.5" x2="2436" y2="406.5" stroke="url(#paint0_linear)"/>
<path d="M892.897 457.091H891.306V508H892.897V457.091ZM929.131 508.795C936.564 508.795 940.665 504.122 942.356 501.239L941.063 500.344C939.671 502.631 936.166 507.205 929.131 507.205C919.536 507.205 914.142 498.877 914.117 488.909H943.947V487.318C943.947 477.45 937.21 469.222 928.336 469.222C919.312 469.222 912.526 477.773 912.526 489.009C912.526 500.244 919.114 508.795 929.131 508.795ZM914.167 487.318C914.838 477.822 920.829 470.812 928.336 470.812C936.067 470.812 942.356 478.146 942.356 487.318H914.167ZM975.545 469.818H967.591V460.67H966V469.818H960.432V471.409H966V499.946C966 505.315 970.052 508.696 974.75 508.696C975.943 508.696 976.838 508.472 977.832 508.099L977.335 506.608C976.465 506.931 975.719 507.105 974.75 507.105C970.947 507.105 967.591 504.396 967.591 499.946V471.409H975.545V469.818ZM1036.37 469.818H1028.41V460.67H1026.82V469.818H1021.26V471.409H1026.82V499.946C1026.82 505.315 1030.88 508.696 1035.57 508.696C1036.77 508.696 1037.66 508.472 1038.66 508.099L1038.16 506.608C1037.29 506.931 1036.54 507.105 1035.57 507.105C1031.77 507.105 1028.41 504.396 1028.41 499.946V471.409H1036.37V469.818ZM1059.58 482.347C1059.58 475.685 1064.46 470.912 1071.22 470.912C1077.98 470.912 1082.65 475.585 1082.65 482.347V508H1084.24V482.347C1084.24 474.69 1078.87 469.321 1071.22 469.321C1065.95 469.321 1061.57 471.906 1059.78 475.884H1059.58V457.091H1057.99V508H1059.58V482.347ZM1120.5 508.795C1127.93 508.795 1132.03 504.122 1133.72 501.239L1132.43 500.344C1131.04 502.631 1127.53 507.205 1120.5 507.205C1110.9 507.205 1105.51 498.877 1105.48 488.909H1135.31V487.318C1135.31 477.45 1128.58 469.222 1119.7 469.222C1110.68 469.222 1103.89 477.773 1103.89 489.009C1103.89 500.244 1110.48 508.795 1120.5 508.795ZM1105.53 487.318C1106.2 477.822 1112.19 470.812 1119.7 470.812C1127.43 470.812 1133.72 478.146 1133.72 487.318H1105.53ZM1154.98 508H1156.57V482.347C1156.57 475.685 1161.44 470.912 1168.2 470.912H1169V469.321H1168.2C1162.93 469.321 1158.56 471.906 1156.77 475.884H1156.57V469.818H1154.98V508ZM1199.3 508.795C1206.73 508.795 1210.83 504.122 1212.52 501.239L1211.23 500.344C1209.84 502.631 1206.33 507.205 1199.3 507.205C1189.7 507.205 1184.31 498.877 1184.28 488.909H1214.11V487.318C1214.11 477.45 1207.38 469.222 1198.5 469.222C1189.48 469.222 1182.69 477.773 1182.69 489.009C1182.69 500.244 1189.28 508.795 1199.3 508.795ZM1184.33 487.318C1185.01 477.822 1191 470.812 1198.5 470.812C1206.23 470.812 1212.52 478.146 1212.52 487.318H1184.33ZM1263.06 508H1264.65V498.455H1264.85C1266.91 504.793 1271.64 508.795 1277.78 508.795C1286.8 508.795 1292.49 500.294 1292.49 489.009C1292.49 477.773 1286.73 469.222 1277.78 469.222C1271.71 469.222 1266.84 473.199 1264.85 479.562H1264.65V457.091H1263.06V508ZM1264.65 489.009C1264.65 478.668 1269.72 470.812 1277.78 470.812C1285.83 470.812 1290.9 478.668 1290.9 489.009C1290.9 499.349 1285.88 507.205 1277.78 507.205C1269.67 507.205 1264.65 499.349 1264.65 489.009ZM1326.42 508.795C1333.85 508.795 1337.96 504.122 1339.65 501.239L1338.35 500.344C1336.96 502.631 1333.46 507.205 1326.42 507.205C1316.83 507.205 1311.43 498.877 1311.41 488.909H1341.24V487.318C1341.24 477.45 1334.5 469.222 1325.63 469.222C1316.6 469.222 1309.82 477.773 1309.82 489.009C1309.82 500.244 1316.4 508.795 1326.42 508.795ZM1311.46 487.318C1312.13 477.822 1318.12 470.812 1325.63 470.812C1333.36 470.812 1339.65 478.146 1339.65 487.318H1311.46ZM1390.58 457.091H1388.99V508H1390.58V457.091ZM1412.7 508H1414.29V469.818H1412.7V508ZM1413.49 462.858C1414.36 462.858 1415.08 462.137 1415.08 461.267C1415.08 460.397 1414.36 459.676 1413.49 459.676C1412.62 459.676 1411.9 460.397 1411.9 461.267C1411.9 462.137 1412.62 462.858 1413.49 462.858ZM1449.34 523.114C1458.17 523.114 1463.56 518.217 1463.56 508.795V469.818H1461.97V479.562H1461.77C1459.68 473.199 1455.01 469.222 1448.85 469.222C1439.8 469.222 1434.13 477.673 1434.13 489.009C1434.13 500.244 1439.9 508 1448.85 508C1454.51 508 1459.78 504.818 1461.77 498.455H1461.97V508.795C1461.97 517.371 1457.3 521.523 1449.34 521.523C1443.6 521.523 1439.03 519.36 1437.31 514.861L1435.82 515.457C1437.76 520.553 1442.93 523.114 1449.34 523.114ZM1448.85 506.409C1440.79 506.409 1435.72 499.349 1435.72 489.009C1435.72 478.668 1440.74 470.812 1448.85 470.812C1456.95 470.812 1461.97 478.668 1461.97 489.009C1461.97 499.722 1456.8 506.409 1448.85 506.409ZM1487.29 482.347C1487.29 475.685 1492.16 470.912 1498.92 470.912C1505.68 470.912 1510.36 475.585 1510.36 482.347V508H1511.95V482.347C1511.95 474.69 1506.58 469.321 1498.92 469.321C1493.65 469.321 1489.28 471.906 1487.49 475.884H1487.29V457.091H1485.7V508H1487.29V482.347ZM1545.81 469.818H1537.86V460.67H1536.27V469.818H1530.7V471.409H1536.27V499.946C1536.27 505.315 1540.32 508.696 1545.02 508.696C1546.21 508.696 1547.11 508.472 1548.1 508.099L1547.6 506.608C1546.73 506.931 1545.99 507.105 1545.02 507.105C1541.21 507.105 1537.86 504.396 1537.86 499.946V471.409H1545.81V469.818Z" fill="black" fill-opacity="0.4"/>
<path d="M556.691 83V14.3H563.091V76.8H594.941L594.141 83H556.691ZM658.702 14.3V19.75H643.102V77.55H658.702V83H621.002V77.55H636.602V19.75H621.002V14.3H658.702ZM708.813 84C703.713 84 699.229 82.7167 695.363 80.15C691.496 77.55 688.479 73.6333 686.313 68.4C684.146 63.1667 683.063 56.5833 683.063 48.65C683.063 42.7167 683.846 37.55 685.413 33.15C686.979 28.7167 689.079 25.0333 691.713 22.1C694.379 19.1667 697.363 16.9833 700.663 15.55C703.996 14.0833 707.396 13.35 710.863 13.35C715.196 13.35 718.763 13.95 721.563 15.15C724.363 16.35 727.113 18.1833 729.813 20.65L725.563 25.05C721.496 21.1833 716.529 19.25 710.663 19.25C708.129 19.25 705.629 19.75 703.163 20.75C700.729 21.7167 698.529 23.3167 696.563 25.55C694.596 27.7833 693.013 30.7833 691.813 34.55C690.646 38.3167 690.063 43 690.063 48.6C690.063 58.8667 691.746 66.35 695.113 71.05C698.479 75.75 703.379 78.1 709.813 78.1C714.946 78.1 719.746 76.8667 724.213 74.4V51.9H709.263L708.363 45.95H730.813V78.3C727.813 79.8333 724.629 81.1667 721.263 82.3C717.896 83.4333 713.746 84 708.813 84ZM790.123 83V49.3H761.423V83H755.073V14.3H761.423V44.1H790.123V14.3H796.473V83H790.123ZM846.734 20.2V83H840.384V20.2H818.234V14.3H868.984L868.284 20.2H846.734ZM901.595 20V45.15H927.595V51H901.595V77.45H933.645V83H895.195V14.3H932.495L931.645 20H901.595ZM1002.71 33.05C1002.71 36.55 1001.92 39.6 1000.36 42.2C998.79 44.7667 996.673 46.8833 994.006 48.55C991.34 50.1833 988.34 51.35 985.006 52.05L1006.11 83H998.106L978.206 52.55H967.506V83H961.106V14.3H977.556C985.79 14.3 992.04 15.9 996.306 19.1C1000.57 22.3 1002.71 26.95 1002.71 33.05ZM995.656 33.05C995.656 28.3167 994.29 24.9333 991.556 22.9C988.856 20.8333 984.623 19.8 978.856 19.8H967.506V47.05H978.656C984.023 47.05 988.19 46 991.156 43.9C994.156 41.7667 995.656 38.15 995.656 33.05ZM1144.88 14.3L1133.68 83H1123.98L1115.23 30.35L1106.58 83H1096.58L1086.28 14.3H1092.98L1101.83 74.8L1110.83 22.3H1120.43L1129.03 74.8L1138.68 14.3H1144.88ZM1208.19 48.75C1208.19 55.5833 1207.27 61.6667 1205.44 67C1203.61 72.3 1200.86 76.4667 1197.19 79.5C1193.56 82.5 1189.01 84 1183.54 84C1178.11 84 1173.56 82.5333 1169.89 79.6C1166.22 76.6333 1163.47 72.5167 1161.64 67.25C1159.81 61.9833 1158.89 55.8667 1158.89 48.9C1158.89 42.0333 1159.81 35.9333 1161.64 30.6C1163.47 25.2333 1166.22 21.0167 1169.89 17.95C1173.56 14.8833 1178.11 13.35 1183.54 13.35C1189.01 13.35 1193.56 14.85 1197.19 17.85C1200.86 20.8167 1203.61 24.9667 1205.44 30.3C1207.27 35.6 1208.19 41.75 1208.19 48.75ZM1201.39 48.75C1201.39 39.3833 1200.01 32.1333 1197.24 27C1194.47 21.8333 1189.91 19.25 1183.54 19.25C1177.17 19.25 1172.61 21.85 1169.84 27.05C1167.07 32.25 1165.69 39.5333 1165.69 48.9C1165.69 58.2333 1167.12 65.4333 1169.99 70.5C1172.86 75.5667 1177.37 78.1 1183.54 78.1C1189.87 78.1 1194.42 75.5667 1197.19 70.5C1199.99 65.4 1201.39 58.15 1201.39 48.75ZM1274.55 33.05C1274.55 36.55 1273.77 39.6 1272.2 42.2C1270.63 44.7667 1268.52 46.8833 1265.85 48.55C1263.18 50.1833 1260.18 51.35 1256.85 52.05L1277.95 83H1269.95L1250.05 52.55H1239.35V83H1232.95V14.3H1249.4C1257.63 14.3 1263.88 15.9 1268.15 19.1C1272.42 22.3 1274.55 26.95 1274.55 33.05ZM1267.5 33.05C1267.5 28.3167 1266.13 24.9333 1263.4 22.9C1260.7 20.8333 1256.47 19.8 1250.7 19.8H1239.35V47.05H1250.5C1255.87 47.05 1260.03 46 1263 43.9C1266 41.7667 1267.5 38.15 1267.5 33.05ZM1307.66 83H1301.31V14.3H1307.66V83ZM1308.16 46.3L1337.71 14.3H1345.56L1316.51 45.95L1347.46 83H1339.11L1308.16 46.3ZM1410.12 64.3C1410.12 70.0667 1408.02 74.8 1403.82 78.5C1399.62 82.1667 1393.64 84 1385.87 84C1381.31 84 1377.02 83.2833 1373.02 81.85C1369.06 80.4167 1365.62 78.3167 1362.72 75.55L1366.92 70.75C1369.26 72.9833 1371.97 74.7833 1375.07 76.15C1378.17 77.4833 1381.89 78.15 1386.22 78.15C1389.16 78.15 1391.94 77.65 1394.57 76.65C1397.21 75.65 1399.36 74.1167 1401.02 72.05C1402.69 69.9833 1403.52 67.35 1403.52 64.15C1403.52 61.75 1403.07 59.7167 1402.17 58.05C1401.27 56.35 1399.67 54.85 1397.37 53.55C1395.07 52.2167 1391.84 50.95 1387.67 49.75C1383.41 48.5167 1379.61 47.1167 1376.27 45.55C1372.94 43.95 1370.32 41.95 1368.42 39.55C1366.52 37.1167 1365.57 34.05 1365.57 30.35C1365.57 27.15 1366.44 24.2667 1368.17 21.7C1369.94 19.1333 1372.41 17.1 1375.57 15.6C1378.74 14.1 1382.46 13.35 1386.72 13.35C1391.29 13.35 1395.24 14 1398.57 15.3C1401.94 16.6 1405.04 18.4667 1407.87 20.9L1403.57 25.6C1401.07 23.3333 1398.37 21.7 1395.47 20.7C1392.61 19.7 1389.69 19.2 1386.72 19.2C1384.09 19.2 1381.66 19.6167 1379.42 20.45C1377.19 21.25 1375.39 22.4667 1374.02 24.1C1372.66 25.7333 1371.97 27.8167 1371.97 30.35C1371.97 32.4833 1372.54 34.3333 1373.67 35.9C1374.81 37.4333 1376.71 38.85 1379.37 40.15C1382.07 41.4167 1385.71 42.7167 1390.27 44.05C1393.61 44.9833 1396.79 46.1833 1399.82 47.65C1402.86 49.0833 1405.32 51.1167 1407.22 53.75C1409.16 56.35 1410.12 59.8667 1410.12 64.3ZM1546.04 64.3C1546.04 70.0667 1543.94 74.8 1539.74 78.5C1535.54 82.1667 1529.56 84 1521.79 84C1517.23 84 1512.94 83.2833 1508.94 81.85C1504.98 80.4167 1501.54 78.3167 1498.64 75.55L1502.84 70.75C1505.18 72.9833 1507.89 74.7833 1510.99 76.15C1514.09 77.4833 1517.81 78.15 1522.14 78.15C1525.08 78.15 1527.86 77.65 1530.49 76.65C1533.13 75.65 1535.28 74.1167 1536.94 72.05C1538.61 69.9833 1539.44 67.35 1539.44 64.15C1539.44 61.75 1538.99 59.7167 1538.09 58.05C1537.19 56.35 1535.59 54.85 1533.29 53.55C1530.99 52.2167 1527.76 50.95 1523.59 49.75C1519.33 48.5167 1515.53 47.1167 1512.19 45.55C1508.86 43.95 1506.24 41.95 1504.34 39.55C1502.44 37.1167 1501.49 34.05 1501.49 30.35C1501.49 27.15 1502.36 24.2667 1504.09 21.7C1505.86 19.1333 1508.33 17.1 1511.49 15.6C1514.66 14.1 1518.38 13.35 1522.64 13.35C1527.21 13.35 1531.16 14 1534.49 15.3C1537.86 16.6 1540.96 18.4667 1543.79 20.9L1539.49 25.6C1536.99 23.3333 1534.29 21.7 1531.39 20.7C1528.53 19.7 1525.61 19.2 1522.64 19.2C1520.01 19.2 1517.58 19.6167 1515.34 20.45C1513.11 21.25 1511.31 22.4667 1509.94 24.1C1508.58 25.7333 1507.89 27.8167 1507.89 30.35C1507.89 32.4833 1508.46 34.3333 1509.59 35.9C1510.73 37.4333 1512.63 38.85 1515.29 40.15C1517.99 41.4167 1521.63 42.7167 1526.19 44.05C1529.53 44.9833 1532.71 46.1833 1535.74 47.65C1538.78 49.0833 1541.24 51.1167 1543.14 53.75C1545.08 56.35 1546.04 59.8667 1546.04 64.3ZM1594.3 20.2V83H1587.95V20.2H1565.8V14.3H1616.55L1615.85 20.2H1594.3ZM1681.12 14.3V60.95C1681.12 65.5833 1680.18 69.6333 1678.32 73.1C1676.45 76.5333 1673.87 79.2167 1670.57 81.15C1667.27 83.05 1663.45 84 1659.12 84C1654.72 84 1650.88 83.0333 1647.62 81.1C1644.38 79.1333 1641.87 76.4167 1640.07 72.95C1638.3 69.4833 1637.42 65.4833 1637.42 60.95V14.3H1643.72V63.15C1643.72 68.0833 1645.13 71.7833 1647.97 74.25C1650.8 76.6833 1654.52 77.9 1659.12 77.9C1663.78 77.9 1667.53 76.6833 1670.37 74.25C1673.23 71.7833 1674.67 68.0833 1674.67 63.15V14.3H1681.12ZM1751.83 48.3C1751.83 55.5667 1750.89 61.4833 1749.03 66.05C1747.16 70.5833 1744.69 74.0833 1741.63 76.55C1738.59 79.0167 1735.31 80.7167 1731.78 81.65C1728.24 82.55 1724.79 83 1721.43 83H1706.53V14.3H1720.38C1724.28 14.3 1728.09 14.75 1731.83 15.65C1735.56 16.5167 1738.93 18.1667 1741.93 20.6C1744.96 23 1747.36 26.4333 1749.13 30.9C1750.93 35.3333 1751.83 41.1333 1751.83 48.3ZM1744.88 48.3C1744.88 41.9 1744.16 36.8167 1742.73 33.05C1741.33 29.25 1739.49 26.4167 1737.23 24.55C1734.96 22.6833 1732.51 21.45 1729.88 20.85C1727.28 20.25 1724.76 19.95 1722.33 19.95H1712.88V77.5H1722.48C1725.01 77.5 1727.58 77.1 1730.18 76.3C1732.81 75.5 1735.23 74.05 1737.43 71.95C1739.66 69.85 1741.46 66.9 1742.83 63.1C1744.19 59.2667 1744.88 54.3333 1744.88 48.3ZM1814.04 14.3V19.75H1798.44V77.55H1814.04V83H1776.34V77.55H1791.94V19.75H1776.34V14.3H1814.04ZM1887.8 48.75C1887.8 55.5833 1886.88 61.6667 1885.05 67C1883.22 72.3 1880.47 76.4667 1876.8 79.5C1873.17 82.5 1868.62 84 1863.15 84C1857.72 84 1853.17 82.5333 1849.5 79.6C1845.83 76.6333 1843.08 72.5167 1841.25 67.25C1839.42 61.9833 1838.5 55.8667 1838.5 48.9C1838.5 42.0333 1839.42 35.9333 1841.25 30.6C1843.08 25.2333 1845.83 21.0167 1849.5 17.95C1853.17 14.8833 1857.72 13.35 1863.15 13.35C1868.62 13.35 1873.17 14.85 1876.8 17.85C1880.47 20.8167 1883.22 24.9667 1885.05 30.3C1886.88 35.6 1887.8 41.75 1887.8 48.75ZM1881 48.75C1881 39.3833 1879.62 32.1333 1876.85 27C1874.08 21.8333 1869.52 19.25 1863.15 19.25C1856.78 19.25 1852.22 21.85 1849.45 27.05C1846.68 32.25 1845.3 39.5333 1845.3 48.9C1845.3 58.2333 1846.73 65.4333 1849.6 70.5C1852.47 75.5667 1856.98 78.1 1863.15 78.1C1869.48 78.1 1874.03 75.5667 1876.8 70.5C1879.6 65.4 1881 58.15 1881 48.75Z" fill="black" fill-opacity="0.3"/>
<defs>
<linearGradient id="paint0_linear" x1="0" y1="407" x2="2436" y2="407" gradientUnits="userSpaceOnUse">
<stop stop-color="white" stop-opacity="0"/>
<stop offset="0.505578"/>
<stop offset="1" stop-color="white" stop-opacity="0"/>
</linearGradient>
</defs>
</svg>
